<svg xmlns="http://www.w3.org/2000/svg" width="805" height="600"><rect width="805" height="600" x="0" y="0" fill="#FFFFFF" id="backgorund"/><g id="viz"><g transform="translate(0,0)"><g transform="translate(10,20)"><g><path fill="#cccccc" d="M0,531.02C49.0625,531.02,49.0625,540.876,98.125,540.876C147.1875,540.876,147.1875,550.592,196.25,550.592C245.3125,550.592,245.3125,523.516,294.375,523.516C343.4375,523.516,343.4375,531.468,392.5,531.468C441.5625,531.468,441.5625,532.86338,490.625,532.86338C539.6875,532.86338,539.6875,541.407328,588.75,541.407328C637.8125,541.407328,637.8125,536.337648,686.875,536.337648C735.9375,536.337648,735.9375,551.684,785,551.684L785,560C735.9375,560,735.9375,560,686.875,560C637.8125,560,637.8125,560,588.75,560C539.6875,560,539.6875,560,490.625,560C441.5625,560,441.5625,560,392.5,560C343.4375,560,343.4375,560,294.375,560C245.3125,560,245.3125,560,196.25,560C147.1875,560,147.1875,560,98.125,560C49.0625,560,49.0625,560,0,560Z"><title>Marari</title></path><path fill="#cccccc" d="M0,516.432C49.0625,516.432,49.0625,532.84,98.125,532.84C147.1875,532.84,147.1875,536.844,196.25,536.844C245.3125,536.844,245.3125,508.704,294.375,508.704C343.4375,508.704,343.4375,512.204,392.5,512.204C441.5625,512.204,441.5625,507.13138000000004,490.625,507.13138000000004C539.6875,507.13138000000004,539.6875,528.863328,588.75,528.863328C637.8125,528.863328,637.8125,515.393648,686.875,515.393648C735.9375,515.393648,735.9375,537.516,785,537.516L785,551.684C735.9375,551.684,735.9375,536.337648,686.875,536.337648C637.8125,536.337648,637.8125,541.407328,588.75,541.407328C539.6875,541.407328,539.6875,532.86338,490.625,532.86338C441.5625,532.86338,441.5625,531.468,392.5,531.468C343.4375,531.468,343.4375,523.516,294.375,523.516C245.3125,523.516,245.3125,550.592,196.25,550.592C147.1875,550.592,147.1875,540.876,98.125,540.876C49.0625,540.876,49.0625,531.02,0,531.02Z"><title>Médio Padauiri</title></path><path fill="#cccccc" d="M0,507.80800000000005C49.0625,507.80800000000005,49.0625,493.976,98.125,493.976C147.1875,493.976,147.1875,505.64133200000003,196.25,505.64133200000003C245.3125,505.64133200000003,245.3125,469.06795600000004,294.375,469.06795600000004C343.4375,469.06795600000004,343.4375,484.817984,392.5,484.817984C441.5625,484.817984,441.5625,460.720232,490.625,460.720232C539.6875,460.720232,539.6875,490.076216,588.75,490.076216C637.8125,490.076216,637.8125,489.969536,686.875,489.969536C735.9375,489.969536,735.9375,512.904,785,512.904L785,537.516C735.9375,537.516,735.9375,515.393648,686.875,515.393648C637.8125,515.393648,637.8125,528.863328,588.75,528.863328C539.6875,528.863328,539.6875,507.13138000000004,490.625,507.13138000000004C441.5625,507.13138000000004,441.5625,512.204,392.5,512.204C343.4375,512.204,343.4375,508.704,294.375,508.704C245.3125,508.704,245.3125,536.844,196.25,536.844C147.1875,536.844,147.1875,532.84,98.125,532.84C49.0625,532.84,49.0625,516.432,0,516.432Z"><title>Marauiá</title></path><path fill="#cccccc" d="M0,502.544C49.0625,502.544,49.0625,488.208,98.125,488.208C147.1875,488.208,147.1875,496.653332,196.25,496.653332C245.3125,496.653332,245.3125,446.723956,294.375,446.723956C343.4375,446.723956,343.4375,459.421984,392.5,459.421984C441.5625,459.421984,441.5625,453.74823200000003,490.625,453.74823200000003C539.6875,453.74823200000003,539.6875,470.980216,588.75,470.980216C637.8125,470.980216,637.8125,465.301536,686.875,465.301536C735.9375,465.301536,735.9375,503.21599999999995,785,503.21599999999995L785,512.904C735.9375,512.904,735.9375,489.969536,686.875,489.969536C637.8125,489.969536,637.8125,490.076216,588.75,490.076216C539.6875,490.076216,539.6875,460.720232,490.625,460.720232C441.5625,460.720232,441.5625,484.817984,392.5,484.817984C343.4375,484.817984,343.4375,469.06795600000004,294.375,469.06795600000004C245.3125,469.06795600000004,245.3125,505.64133200000003,196.25,505.64133200000003C147.1875,505.64133200000003,147.1875,493.976,98.125,493.976C49.0625,493.976,49.0625,507.80800000000005,0,507.80800000000005Z"><title>Missão Catrimani</title></path><path fill="#cccccc" d="M0,497.868C49.0625,497.868,49.0625,481.59999999999997,98.125,481.59999999999997C147.1875,481.59999999999997,147.1875,494.609332,196.25,494.609332C245.3125,494.609332,245.3125,446.527956,294.375,446.527956C343.4375,446.527956,343.4375,452.897984,392.5,452.897984C441.5625,452.897984,441.5625,452.348232,490.625,452.348232C539.6875,452.348232,539.6875,463.000216,588.75,463.000216C637.8125,463.000216,637.8125,457.713536,686.875,457.713536C735.9375,457.713536,735.9375,502.068,785,502.068L785,503.21599999999995C735.9375,503.21599999999995,735.9375,465.301536,686.875,465.301536C637.8125,465.301536,637.8125,470.980216,588.75,470.980216C539.6875,470.980216,539.6875,453.74823200000003,490.625,453.74823200000003C441.5625,453.74823200000003,441.5625,459.421984,392.5,459.421984C343.4375,459.421984,343.4375,446.723956,294.375,446.723956C245.3125,446.723956,245.3125,496.653332,196.25,496.653332C147.1875,496.653332,147.1875,488.208,98.125,488.208C49.0625,488.208,49.0625,502.544,0,502.544Z"><title>Baixo Mucajai</title></path><path fill="#7f7f7f" d="M0,493.52799999999996C49.0625,493.52799999999996,49.0625,479.948,98.125,479.948C147.1875,479.948,147.1875,482.90533200000004,196.25,482.90533200000004C245.3125,482.90533200000004,245.3125,442.49595600000004,294.375,442.49595600000004C343.4375,442.49595600000004,343.4375,448.669984,392.5,448.669984C441.5625,448.669984,441.5625,428.744232,490.625,428.744232C539.6875,428.744232,539.6875,411.11621599999995,588.75,411.11621599999995C637.8125,411.11621599999995,637.8125,425.70953600000007,686.875,425.70953600000007C735.9375,425.70953600000007,735.9375,488.6,785,488.6L785,502.068C735.9375,502.068,735.9375,457.713536,686.875,457.713536C637.8125,457.713536,637.8125,463.000216,588.75,463.000216C539.6875,463.000216,539.6875,452.348232,490.625,452.348232C441.5625,452.348232,441.5625,452.897984,392.5,452.897984C343.4375,452.897984,343.4375,446.527956,294.375,446.527956C245.3125,446.527956,245.3125,494.609332,196.25,494.609332C147.1875,494.609332,147.1875,481.59999999999997,98.125,481.59999999999997C49.0625,481.59999999999997,49.0625,497.868,0,497.868Z"><title>Aratha-u</title></path><path fill="#1f77b4" d="M0,490.19599999999997C49.0625,490.19599999999997,49.0625,479.136,98.125,479.136C147.1875,479.136,147.1875,482.849332,196.25,482.849332C245.3125,482.849332,245.3125,441.179956,294.375,441.179956C343.4375,441.179956,343.4375,447.82998399999997,392.5,447.82998399999997C441.5625,447.82998399999997,441.5625,428.492232,490.625,428.492232C539.6875,428.492232,539.6875,410.864216,588.75,410.864216C637.8125,410.864216,637.8125,425.093536,686.875,425.093536C735.9375,425.093536,735.9375,488.43199999999996,785,488.43199999999996L785,488.6C735.9375,488.6,735.9375,425.70953600000007,686.875,425.70953600000007C637.8125,425.70953600000007,637.8125,411.11621599999995,588.75,411.11621599999995C539.6875,411.11621599999995,539.6875,428.744232,490.625,428.744232C441.5625,428.744232,441.5625,448.669984,392.5,448.669984C343.4375,448.669984,343.4375,442.49595600000004,294.375,442.49595600000004C245.3125,442.49595600000004,245.3125,482.90533200000004,196.25,482.90533200000004C147.1875,482.90533200000004,147.1875,479.948,98.125,479.948C49.0625,479.948,49.0625,493.52799999999996,0,493.52799999999996Z"><title>Ajarani</title></path><path fill="#cccccc" d="M0,487.312C49.0625,487.312,49.0625,472.19199999999995,98.125,472.19199999999995C147.1875,472.19199999999995,147.1875,473.049332,196.25,473.049332C245.3125,473.049332,245.3125,441.067956,294.375,441.067956C343.4375,441.067956,343.4375,444.41398399999997,392.5,444.41398399999997C441.5625,444.41398399999997,441.5625,418.076232,490.625,418.076232C539.6875,418.076232,539.6875,397.25621599999994,588.75,397.25621599999994C637.8125,397.25621599999994,637.8125,408.74153600000005,686.875,408.74153600000005C735.9375,408.74153600000005,735.9375,486.976,785,486.976L785,488.43199999999996C735.9375,488.43199999999996,735.9375,425.093536,686.875,425.093536C637.8125,425.093536,637.8125,410.864216,588.75,410.864216C539.6875,410.864216,539.6875,428.492232,490.625,428.492232C441.5625,428.492232,441.5625,447.82998399999997,392.5,447.82998399999997C343.4375,447.82998399999997,343.4375,441.179956,294.375,441.179956C245.3125,441.179956,245.3125,482.849332,196.25,482.849332C147.1875,482.849332,147.1875,479.136,98.125,479.136C49.0625,479.136,49.0625,490.19599999999997,0,490.19599999999997Z"><title>Ericó</title></path><path fill="#d62728" d="M0,485.324C49.0625,485.324,49.0625,458.892,98.125,458.892C147.1875,458.892,147.1875,464.901332,196.25,464.901332C245.3125,464.901332,245.3125,439.471956,294.375,439.471956C343.4375,439.471956,343.4375,431.02998399999996,392.5,431.02998399999996C441.5625,431.02998399999996,441.5625,402.872232,490.625,402.872232C539.6875,402.872232,539.6875,370.236216,588.75,370.236216C637.8125,370.236216,637.8125,385.473536,686.875,385.473536C735.9375,385.473536,735.9375,481.824,785,481.824L785,486.976C735.9375,486.976,735.9375,408.74153600000005,686.875,408.74153600000005C637.8125,408.74153600000005,637.8125,397.25621599999994,588.75,397.25621599999994C539.6875,397.25621599999994,539.6875,418.076232,490.625,418.076232C441.5625,418.076232,441.5625,444.41398399999997,392.5,444.41398399999997C343.4375,444.41398399999997,343.4375,441.067956,294.375,441.067956C245.3125,441.067956,245.3125,473.049332,196.25,473.049332C147.1875,473.049332,147.1875,472.19199999999995,98.125,472.19199999999995C49.0625,472.19199999999995,49.0625,487.312,0,487.312Z"><title>Alto Mucajai</title></path><path fill="#cccccc" d="M0,483.644C49.0625,483.644,49.0625,457.436,98.125,457.436C147.1875,457.436,147.1875,457.50933200000003,196.25,457.50933200000003C245.3125,457.50933200000003,245.3125,439.21995599999997,294.375,439.21995599999997C343.4375,439.21995599999997,343.4375,426.437984,392.5,426.437984C441.5625,426.437984,441.5625,396.06823199999997,490.625,396.06823199999997C539.6875,396.06823199999997,539.6875,361.724216,588.75,361.724216C637.8125,361.724216,637.8125,369.345536,686.875,369.345536C735.9375,369.345536,735.9375,479.472,785,479.472L785,481.824C735.9375,481.824,735.9375,385.473536,686.875,385.473536C637.8125,385.473536,637.8125,370.236216,588.75,370.236216C539.6875,370.236216,539.6875,402.872232,490.625,402.872232C441.5625,402.872232,441.5625,431.02998399999996,392.5,431.02998399999996C343.4375,431.02998399999996,343.4375,439.471956,294.375,439.471956C245.3125,439.471956,245.3125,464.901332,196.25,464.901332C147.1875,464.901332,147.1875,458.892,98.125,458.892C49.0625,458.892,49.0625,485.324,0,485.324Z"><title>Sauba</title></path><path fill="#cccccc" d="M0,482.02C49.0625,482.02,49.0625,457.212,98.125,457.212C147.1875,457.212,147.1875,456.221332,196.25,456.221332C245.3125,456.221332,245.3125,434.711956,294.375,434.711956C343.4375,434.711956,343.4375,422.741984,392.5,422.741984C441.5625,422.741984,441.5625,388.536232,490.625,388.536232C539.6875,388.536232,539.6875,356.740216,588.75,356.740216C637.8125,356.740216,637.8125,364.83753600000006,686.875,364.83753600000006C735.9375,364.83753600000006,735.9375,477.54,785,477.54L785,479.472C735.9375,479.472,735.9375,369.345536,686.875,369.345536C637.8125,369.345536,637.8125,361.724216,588.75,361.724216C539.6875,361.724216,539.6875,396.06823199999997,490.625,396.06823199999997C441.5625,396.06823199999997,441.5625,426.437984,392.5,426.437984C343.4375,426.437984,343.4375,439.21995599999997,294.375,439.21995599999997C245.3125,439.21995599999997,245.3125,457.50933200000003,196.25,457.50933200000003C147.1875,457.50933200000003,147.1875,457.436,98.125,457.436C49.0625,457.436,49.0625,483.644,0,483.644Z"><title>Cachoeira do Araçá</title></path><path fill="#cccccc" d="M0,480.81600000000003C49.0625,480.81600000000003,49.0625,453.46,98.125,453.46C147.1875,453.46,147.1875,454.96133199999997,196.25,454.96133199999997C245.3125,454.96133199999997,245.3125,434.711956,294.375,434.711956C343.4375,434.711956,343.4375,414.20198400000004,392.5,414.20198400000004C441.5625,414.20198400000004,441.5625,369.748232,490.625,369.748232C539.6875,369.748232,539.6875,305.360216,588.75,305.360216C637.8125,305.360216,637.8125,353.02153599999997,686.875,353.02153599999997C735.9375,353.02153599999997,735.9375,468.748,785,468.748L785,477.54C735.9375,477.54,735.9375,364.83753600000006,686.875,364.83753600000006C637.8125,364.83753600000006,637.8125,356.740216,588.75,356.740216C539.6875,356.740216,539.6875,388.536232,490.625,388.536232C441.5625,388.536232,441.5625,422.741984,392.5,422.741984C343.4375,422.741984,343.4375,434.711956,294.375,434.711956C245.3125,434.711956,245.3125,456.221332,196.25,456.221332C147.1875,456.221332,147.1875,457.212,98.125,457.212C49.0625,457.212,49.0625,482.02,0,482.02Z"><title>Palimiú</title></path><path fill="#cccccc" d="M0,480.08799999999997C49.0625,480.08799999999997,49.0625,452.648,98.125,452.648C147.1875,452.648,147.1875,451.433332,196.25,451.433332C245.3125,451.433332,245.3125,434.43195599999996,294.375,434.43195599999996C343.4375,434.43195599999996,343.4375,410.701984,392.5,410.701984C441.5625,410.701984,441.5625,350.848232,490.625,350.848232C539.6875,350.848232,539.6875,275.65221599999995,588.75,275.65221599999995C637.8125,275.65221599999995,637.8125,338.29353599999996,686.875,338.29353599999996C735.9375,338.29353599999996,735.9375,464.23999999999995,785,464.23999999999995L785,468.748C735.9375,468.748,735.9375,353.02153599999997,686.875,353.02153599999997C637.8125,353.02153599999997,637.8125,305.360216,588.75,305.360216C539.6875,305.360216,539.6875,369.748232,490.625,369.748232C441.5625,369.748232,441.5625,414.20198400000004,392.5,414.20198400000004C343.4375,414.20198400000004,343.4375,434.711956,294.375,434.711956C245.3125,434.711956,245.3125,454.96133199999997,196.25,454.96133199999997C147.1875,454.96133199999997,147.1875,453.46,98.125,453.46C49.0625,453.46,49.0625,480.81600000000003,0,480.81600000000003Z"><title>Uraricoera</title></path><path fill="#8c564b" d="M0,479.64000000000004C49.0625,479.64000000000004,49.0625,450.604,98.125,450.604C147.1875,450.604,147.1875,450.957332,196.25,450.957332C245.3125,450.957332,245.3125,434.263956,294.375,434.263956C343.4375,434.263956,343.4375,406.89398400000005,392.5,406.89398400000005C441.5625,406.89398400000005,441.5625,349.756232,490.625,349.756232C539.6875,349.756232,539.6875,272.712216,588.75,272.712216C637.8125,272.712216,637.8125,328.577536,686.875,328.577536C735.9375,328.577536,735.9375,461.188,785,461.188L785,464.23999999999995C735.9375,464.23999999999995,735.9375,338.29353599999996,686.875,338.29353599999996C637.8125,338.29353599999996,637.8125,275.65221599999995,588.75,275.65221599999995C539.6875,275.65221599999995,539.6875,350.848232,490.625,350.848232C441.5625,350.848232,441.5625,410.701984,392.5,410.701984C343.4375,410.701984,343.4375,434.43195599999996,294.375,434.43195599999996C245.3125,434.43195599999996,245.3125,451.433332,196.25,451.433332C147.1875,451.433332,147.1875,452.648,98.125,452.648C49.0625,452.648,49.0625,480.08799999999997,0,480.08799999999997Z"><title>Apiaú</title></path><path fill="#e377c2" d="M0,479.22C49.0625,479.22,49.0625,450.548,98.125,450.548C147.1875,450.548,147.1875,450.229332,196.25,450.229332C245.3125,450.229332,245.3125,428.15995599999997,294.375,428.15995599999997C343.4375,428.15995599999997,343.4375,404.513984,392.5,404.513984C441.5625,404.513984,441.5625,346.284232,490.625,346.284232C539.6875,346.284232,539.6875,272.09621599999997,588.75,272.09621599999997C637.8125,272.09621599999997,637.8125,326.56153599999993,686.875,326.56153599999993C735.9375,326.56153599999993,735.9375,460.796,785,460.796L785,461.188C735.9375,461.188,735.9375,328.577536,686.875,328.577536C637.8125,328.577536,637.8125,272.712216,588.75,272.712216C539.6875,272.712216,539.6875,349.756232,490.625,349.756232C441.5625,349.756232,441.5625,406.89398400000005,392.5,406.89398400000005C343.4375,406.89398400000005,343.4375,434.263956,294.375,434.263956C245.3125,434.263956,245.3125,450.957332,196.25,450.957332C147.1875,450.957332,147.1875,450.604,98.125,450.604C49.0625,450.604,49.0625,479.64000000000004,0,479.64000000000004Z"><title>Aracá</title></path><path fill="#9467bd" d="M0,478.912C49.0625,478.912,49.0625,449.73600000000005,98.125,449.73600000000005C147.1875,449.73600000000005,147.1875,449.249332,196.25,449.249332C245.3125,449.249332,245.3125,424.603956,294.375,424.603956C343.4375,424.603956,343.4375,399.86598399999997,392.5,399.86598399999997C441.5625,399.86598399999997,441.5625,341.44023200000004,490.625,341.44023200000004C539.6875,341.44023200000004,539.6875,269.100216,588.75,269.100216C637.8125,269.100216,637.8125,319.449536,686.875,319.449536C735.9375,319.449536,735.9375,456.42800000000005,785,456.42800000000005L785,460.796C735.9375,460.796,735.9375,326.56153599999993,686.875,326.56153599999993C637.8125,326.56153599999993,637.8125,272.09621599999997,588.75,272.09621599999997C539.6875,272.09621599999997,539.6875,346.284232,490.625,346.284232C441.5625,346.284232,441.5625,404.513984,392.5,404.513984C343.4375,404.513984,343.4375,428.15995599999997,294.375,428.15995599999997C245.3125,428.15995599999997,245.3125,450.229332,196.25,450.229332C147.1875,450.229332,147.1875,450.548,98.125,450.548C49.0625,450.548,49.0625,479.22,0,479.22Z"><title>Alto Padauiri</title></path><path fill="#bcbd22" d="M0,478.632C49.0625,478.632,49.0625,448.84,98.125,448.84C147.1875,448.84,147.1875,448.577332,196.25,448.577332C245.3125,448.577332,245.3125,423.259956,294.375,423.259956C343.4375,423.259956,343.4375,391.829984,392.5,391.829984C441.5625,391.829984,441.5625,322.064232,490.625,322.064232C539.6875,322.064232,539.6875,229.84418799999997,588.75,229.84418799999997C637.8125,229.84418799999997,637.8125,255.693536,686.875,255.693536C735.9375,255.693536,735.9375,447.216,785,447.216L785,456.42800000000005C735.9375,456.42800000000005,735.9375,319.449536,686.875,319.449536C637.8125,319.449536,637.8125,269.100216,588.75,269.100216C539.6875,269.100216,539.6875,341.44023200000004,490.625,341.44023200000004C441.5625,341.44023200000004,441.5625,399.86598399999997,392.5,399.86598399999997C343.4375,399.86598399999997,343.4375,424.603956,294.375,424.603956C245.3125,424.603956,245.3125,449.249332,196.25,449.249332C147.1875,449.249332,147.1875,449.73600000000005,98.125,449.73600000000005C49.0625,449.73600000000005,49.0625,478.912,0,478.912Z"><title>Auaris</title></path><path fill="#cccccc" d="M0,478.436C49.0625,478.436,49.0625,448.53200000000004,98.125,448.53200000000004C147.1875,448.53200000000004,147.1875,447.90533200000004,196.25,447.90533200000004C245.3125,447.90533200000004,245.3125,419.143956,294.375,419.143956C343.4375,419.143956,343.4375,380.657984,392.5,380.657984C441.5625,380.657984,441.5625,306.244232,490.625,306.244232C539.6875,306.244232,539.6875,210.804188,588.75,210.804188C637.8125,210.804188,637.8125,221.925536,686.875,221.925536C735.9375,221.925536,735.9375,439.48799999999994,785,439.48799999999994L785,447.216C735.9375,447.216,735.9375,255.693536,686.875,255.693536C637.8125,255.693536,637.8125,229.84418799999997,588.75,229.84418799999997C539.6875,229.84418799999997,539.6875,322.064232,490.625,322.064232C441.5625,322.064232,441.5625,391.829984,392.5,391.829984C343.4375,391.829984,343.4375,423.259956,294.375,423.259956C245.3125,423.259956,245.3125,448.577332,196.25,448.577332C147.1875,448.577332,147.1875,448.84,98.125,448.84C49.0625,448.84,49.0625,478.632,0,478.632Z"><title>Novo-Demini</title></path><path fill="#cccccc" d="M0,478.352C49.0625,478.352,49.0625,440.888,98.125,440.888C147.1875,440.888,147.1875,443.593332,196.25,443.593332C245.3125,443.593332,245.3125,408.307956,294.375,408.307956C343.4375,408.307956,343.4375,375.925984,392.5,375.925984C441.5625,375.925984,441.5625,285.608232,490.625,285.608232C539.6875,285.608232,539.6875,183.868188,588.75,183.868188C637.8125,183.868188,637.8125,204.285536,686.875,204.285536C735.9375,204.285536,735.9375,432.908,785,432.908L785,439.48799999999994C735.9375,439.48799999999994,735.9375,221.925536,686.875,221.925536C637.8125,221.925536,637.8125,210.804188,588.75,210.804188C539.6875,210.804188,539.6875,306.244232,490.625,306.244232C441.5625,306.244232,441.5625,380.657984,392.5,380.657984C343.4375,380.657984,343.4375,419.143956,294.375,419.143956C245.3125,419.143956,245.3125,447.90533200000004,196.25,447.90533200000004C147.1875,447.90533200000004,147.1875,448.53200000000004,98.125,448.53200000000004C49.0625,448.53200000000004,49.0625,478.436,0,478.436Z"><title>Parafuri</title></path><path fill="#cccccc" d="M0,478.296C49.0625,478.296,49.0625,440.86,98.125,440.86C147.1875,440.86,147.1875,443.257332,196.25,443.257332C245.3125,443.257332,245.3125,407.999956,294.375,407.999956C343.4375,407.999956,343.4375,372.537984,392.5,372.537984C441.5625,372.537984,441.5625,240.052232,490.625,240.052232C539.6875,240.052232,539.6875,145.340188,588.75,145.340188C637.8125,145.340188,637.8125,194.45753600000003,686.875,194.45753600000003C735.9375,194.45753600000003,735.9375,428.87600000000003,785,428.87600000000003L785,432.908C735.9375,432.908,735.9375,204.285536,686.875,204.285536C637.8125,204.285536,637.8125,183.868188,588.75,183.868188C539.6875,183.868188,539.6875,285.608232,490.625,285.608232C441.5625,285.608232,441.5625,375.925984,392.5,375.925984C343.4375,375.925984,343.4375,408.307956,294.375,408.307956C245.3125,408.307956,245.3125,443.593332,196.25,443.593332C147.1875,443.593332,147.1875,440.888,98.125,440.888C49.0625,440.888,49.0625,478.352,0,478.352Z"><title>Waikás</title></path><path fill="#cccccc" d="M0,478.24C49.0625,478.24,49.0625,440.636,98.125,440.636C147.1875,440.636,147.1875,441.185332,196.25,441.185332C245.3125,441.185332,245.3125,398.479956,294.375,398.479956C343.4375,398.479956,343.4375,356.269984,392.5,356.269984C441.5625,356.269984,441.5625,208.356232,490.625,208.356232C539.6875,208.356232,539.6875,117.872188,588.75,117.872188C637.8125,117.872188,637.8125,169.67753600000003,686.875,169.67753600000003C735.9375,169.67753600000003,735.9375,421.652,785,421.652L785,428.87600000000003C735.9375,428.87600000000003,735.9375,194.45753600000003,686.875,194.45753600000003C637.8125,194.45753600000003,637.8125,145.340188,588.75,145.340188C539.6875,145.340188,539.6875,240.052232,490.625,240.052232C441.5625,240.052232,441.5625,372.537984,392.5,372.537984C343.4375,372.537984,343.4375,407.999956,294.375,407.999956C245.3125,407.999956,245.3125,443.257332,196.25,443.257332C147.1875,443.257332,147.1875,440.86,98.125,440.86C49.0625,440.86,49.0625,478.296,0,478.296Z"><title>Toototobi</title></path><path fill="#cccccc" d="M0,478.18399999999997C49.0625,478.18399999999997,49.0625,438.592,98.125,438.592C147.1875,438.592,147.1875,441.017332,196.25,441.017332C245.3125,441.017332,245.3125,398.42395600000003,294.375,398.42395600000003C343.4375,398.42395600000003,343.4375,356.213984,392.5,356.213984C441.5625,356.213984,441.5625,206.760232,490.625,206.760232C539.6875,206.760232,539.6875,111.34818799999996,588.75,111.34818799999996C637.8125,111.34818799999996,637.8125,156.209536,686.875,156.209536C735.9375,156.209536,735.9375,416.78000000000003,785,416.78000000000003L785,421.652C735.9375,421.652,735.9375,169.67753600000003,686.875,169.67753600000003C637.8125,169.67753600000003,637.8125,117.872188,588.75,117.872188C539.6875,117.872188,539.6875,208.356232,490.625,208.356232C441.5625,208.356232,441.5625,356.269984,392.5,356.269984C343.4375,356.269984,343.4375,398.479956,294.375,398.479956C245.3125,398.479956,245.3125,441.185332,196.25,441.185332C147.1875,441.185332,147.1875,440.636,98.125,440.636C49.0625,440.636,49.0625,478.24,0,478.24Z"><title>Surucucu</title></path><path fill="#cccccc" d="M0,478.128C49.0625,478.128,49.0625,438.396,98.125,438.396C147.1875,438.396,147.1875,439.14133200000003,196.25,439.14133200000003C245.3125,439.14133200000003,245.3125,395.67995599999995,294.375,395.67995599999995C343.4375,395.67995599999995,343.4375,353.24598399999996,392.5,353.24598399999996C441.5625,353.24598399999996,441.5625,203.84823200000002,490.625,203.84823200000002C539.6875,203.84823200000002,539.6875,110.03218799999998,588.75,110.03218799999998C637.8125,110.03218799999998,637.8125,155.87353599999997,686.875,155.87353599999997C735.9375,155.87353599999997,735.9375,416.69599999999997,785,416.69599999999997L785,416.78000000000003C735.9375,416.78000000000003,735.9375,156.209536,686.875,156.209536C637.8125,156.209536,637.8125,111.34818799999996,588.75,111.34818799999996C539.6875,111.34818799999996,539.6875,206.760232,490.625,206.760232C441.5625,206.760232,441.5625,356.213984,392.5,356.213984C343.4375,356.213984,343.4375,398.42395600000003,294.375,398.42395600000003C245.3125,398.42395600000003,245.3125,441.017332,196.25,441.017332C147.1875,441.017332,147.1875,438.592,98.125,438.592C49.0625,438.592,49.0625,478.18399999999997,0,478.18399999999997Z"><title>Maia</title></path><path fill="#cccccc" d="M0,478.1C49.0625,478.1,49.0625,438.144,98.125,438.144C147.1875,438.144,147.1875,438.83333200000004,196.25,438.83333200000004C245.3125,438.83333200000004,245.3125,394.783956,294.375,394.783956C343.4375,394.783956,343.4375,351.173984,392.5,351.173984C441.5625,351.173984,441.5625,200.096232,490.625,200.096232C539.6875,200.096232,539.6875,107.624188,588.75,107.624188C637.8125,107.624188,637.8125,155.089536,686.875,155.089536C735.9375,155.089536,735.9375,416.44399999999996,785,416.44399999999996L785,416.69599999999997C735.9375,416.69599999999997,735.9375,155.87353599999997,686.875,155.87353599999997C637.8125,155.87353599999997,637.8125,110.03218799999998,588.75,110.03218799999998C539.6875,110.03218799999998,539.6875,203.84823200000002,490.625,203.84823200000002C441.5625,203.84823200000002,441.5625,353.24598399999996,392.5,353.24598399999996C343.4375,353.24598399999996,343.4375,395.67995599999995,294.375,395.67995599999995C245.3125,395.67995599999995,245.3125,439.14133200000003,196.25,439.14133200000003C147.1875,439.14133200000003,147.1875,438.396,98.125,438.396C49.0625,438.396,49.0625,478.128,0,478.128Z"><title>Maturacá</title></path><path fill="#cccccc" d="M0,478.072C49.0625,478.072,49.0625,438.116,98.125,438.116C147.1875,438.116,147.1875,438.60933200000005,196.25,438.60933200000005C245.3125,438.60933200000005,245.3125,394.05595600000004,294.375,394.05595600000004C343.4375,394.05595600000004,343.4375,345.853984,392.5,345.853984C441.5625,345.853984,441.5625,192.088232,490.625,192.088232C539.6875,192.088232,539.6875,104.57218799999995,588.75,104.57218799999995C637.8125,104.57218799999995,637.8125,153.71753600000002,686.875,153.71753600000002C735.9375,153.71753600000002,735.9375,416.21999999999997,785,416.21999999999997L785,416.44399999999996C735.9375,416.44399999999996,735.9375,155.089536,686.875,155.089536C637.8125,155.089536,637.8125,107.624188,588.75,107.624188C539.6875,107.624188,539.6875,200.096232,490.625,200.096232C441.5625,200.096232,441.5625,351.173984,392.5,351.173984C343.4375,351.173984,343.4375,394.783956,294.375,394.783956C245.3125,394.783956,245.3125,438.83333200000004,196.25,438.83333200000004C147.1875,438.83333200000004,147.1875,438.144,98.125,438.144C49.0625,438.144,49.0625,478.1,0,478.1Z"><title>Inambú</title></path><path fill="#cccccc" d="M0,478.044C49.0625,478.044,49.0625,438.032,98.125,438.032C147.1875,438.032,147.1875,438.60933200000005,196.25,438.60933200000005C245.3125,438.60933200000005,245.3125,394.05595600000004,294.375,394.05595600000004C343.4375,394.05595600000004,343.4375,345.713984,392.5,345.713984C441.5625,345.713984,441.5625,192.060232,490.625,192.060232C539.6875,192.060232,539.6875,103.87218799999998,588.75,103.87218799999998C637.8125,103.87218799999998,637.8125,153.633536,686.875,153.633536C735.9375,153.633536,735.9375,416.164,785,416.164L785,416.21999999999997C735.9375,416.21999999999997,735.9375,153.71753600000002,686.875,153.71753600000002C637.8125,153.71753600000002,637.8125,104.57218799999995,588.75,104.57218799999995C539.6875,104.57218799999995,539.6875,192.088232,490.625,192.088232C441.5625,192.088232,441.5625,345.853984,392.5,345.853984C343.4375,345.853984,343.4375,394.05595600000004,294.375,394.05595600000004C245.3125,394.05595600000004,245.3125,438.60933200000005,196.25,438.60933200000005C147.1875,438.60933200000005,147.1875,438.116,98.125,438.116C49.0625,438.116,49.0625,478.072,0,478.072Z"><title>Haxiu</title></path><path fill="#cccccc" d="M0,478.016C49.0625,478.016,49.0625,437.36,98.125,437.36C147.1875,437.36,147.1875,426.653332,196.25,426.653332C245.3125,426.653332,245.3125,388.39995600000003,294.375,388.39995600000003C343.4375,388.39995600000003,343.4375,328.80198399999995,392.5,328.80198399999995C441.5625,328.80198399999995,441.5625,164.592232,490.625,164.592232C539.6875,164.592232,539.6875,82.17218799999995,588.75,82.17218799999995C637.8125,82.17218799999995,637.8125,115.077536,686.875,115.077536C735.9375,115.077536,735.9375,401.604,785,401.604L785,416.164C735.9375,416.164,735.9375,153.633536,686.875,153.633536C637.8125,153.633536,637.8125,103.87218799999998,588.75,103.87218799999998C539.6875,103.87218799999998,539.6875,192.060232,490.625,192.060232C441.5625,192.060232,441.5625,345.713984,392.5,345.713984C343.4375,345.713984,343.4375,394.05595600000004,294.375,394.05595600000004C245.3125,394.05595600000004,245.3125,438.60933200000005,196.25,438.60933200000005C147.1875,438.60933200000005,147.1875,438.032,98.125,438.032C49.0625,438.032,49.0625,478.044,0,478.044Z"><title>Balawau</title></path><path fill="#cccccc" d="M0,478.016C49.0625,478.016,49.0625,434.53200000000004,98.125,434.53200000000004C147.1875,434.53200000000004,147.1875,426.653332,196.25,426.653332C245.3125,426.653332,245.3125,388.39995600000003,294.375,388.39995600000003C343.4375,388.39995600000003,343.4375,324.573984,392.5,324.573984C441.5625,324.573984,441.5625,151.93623200000002,490.625,151.93623200000002C539.6875,151.93623200000002,539.6875,65.82018799999994,588.75,65.82018799999994C637.8125,65.82018799999994,637.8125,102.617536,686.875,102.617536C735.9375,102.617536,735.9375,398.27200000000005,785,398.27200000000005L785,401.604C735.9375,401.604,735.9375,115.077536,686.875,115.077536C637.8125,115.077536,637.8125,82.17218799999995,588.75,82.17218799999995C539.6875,82.17218799999995,539.6875,164.592232,490.625,164.592232C441.5625,164.592232,441.5625,328.80198399999995,392.5,328.80198399999995C343.4375,328.80198399999995,343.4375,388.39995600000003,294.375,388.39995600000003C245.3125,388.39995600000003,245.3125,426.653332,196.25,426.653332C147.1875,426.653332,147.1875,437.36,98.125,437.36C49.0625,437.36,49.0625,478.016,0,478.016Z"><title>Paapiu</title></path><path fill="#cccccc" d="M0,478.016C49.0625,478.016,49.0625,432.51599999999996,98.125,432.51599999999996C147.1875,432.51599999999996,147.1875,426.401332,196.25,426.401332C245.3125,426.401332,245.3125,388.37195599999995,294.375,388.37195599999995C343.4375,388.37195599999995,343.4375,323.509984,392.5,323.509984C441.5625,323.509984,441.5625,145.69223200000002,490.625,145.69223200000002C539.6875,145.69223200000002,539.6875,50.16818799999992,588.75,50.16818799999992C637.8125,50.16818799999992,637.8125,76.80153599999998,686.875,76.80153599999998C735.9375,76.80153599999998,735.9375,389.14400000000006,785,389.14400000000006L785,398.27200000000005C735.9375,398.27200000000005,735.9375,102.617536,686.875,102.617536C637.8125,102.617536,637.8125,65.82018799999994,588.75,65.82018799999994C539.6875,65.82018799999994,539.6875,151.93623200000002,490.625,151.93623200000002C441.5625,151.93623200000002,441.5625,324.573984,392.5,324.573984C343.4375,324.573984,343.4375,388.39995600000003,294.375,388.39995600000003C245.3125,388.39995600000003,245.3125,426.653332,196.25,426.653332C147.1875,426.653332,147.1875,434.53200000000004,98.125,434.53200000000004C49.0625,434.53200000000004,49.0625,478.016,0,478.016Z"><title>Maloca Paapiu</title></path><path fill="#2ca02c" d="M0,478.016C49.0625,478.016,49.0625,431.2,98.125,431.2C147.1875,431.2,147.1875,421.669332,196.25,421.669332C245.3125,421.669332,245.3125,388.231956,294.375,388.231956C343.4375,388.231956,343.4375,323.509984,392.5,323.509984C441.5625,323.509984,441.5625,141.38023199999998,490.625,141.38023199999998C539.6875,141.38023199999998,539.6875,44.87618799999994,588.75,44.87618799999994C637.8125,44.87618799999994,637.8125,67.113536,686.875,67.113536C735.9375,67.113536,735.9375,385.224,785,385.224L785,389.14400000000006C735.9375,389.14400000000006,735.9375,76.80153599999998,686.875,76.80153599999998C637.8125,76.80153599999998,637.8125,50.16818799999992,588.75,50.16818799999992C539.6875,50.16818799999992,539.6875,145.69223200000002,490.625,145.69223200000002C441.5625,145.69223200000002,441.5625,323.509984,392.5,323.509984C343.4375,323.509984,343.4375,388.37195599999995,294.375,388.37195599999995C245.3125,388.37195599999995,245.3125,426.401332,196.25,426.401332C147.1875,426.401332,147.1875,432.51599999999996,98.125,432.51599999999996C49.0625,432.51599999999996,49.0625,478.016,0,478.016Z"><title>Alto Catrimani</title></path><path fill="#17becf" d="M0,478.016C49.0625,478.016,49.0625,430.91999999999996,98.125,430.91999999999996C147.1875,430.91999999999996,147.1875,421.64133200000003,196.25,421.64133200000003C245.3125,421.64133200000003,245.3125,385.739956,294.375,385.739956C343.4375,385.739956,343.4375,316.98598400000003,392.5,316.98598400000003C441.5625,316.98598400000003,441.5625,137.74023200000002,490.625,137.74023200000002C539.6875,137.74023200000002,539.6875,43.05618799999996,588.75,43.05618799999996C637.8125,43.05618799999996,637.8125,57.64953599999998,686.875,57.64953599999998C735.9375,57.64953599999998,735.9375,383.908,785,383.908L785,385.224C735.9375,385.224,735.9375,67.113536,686.875,67.113536C637.8125,67.113536,637.8125,44.87618799999994,588.75,44.87618799999994C539.6875,44.87618799999994,539.6875,141.38023199999998,490.625,141.38023199999998C441.5625,141.38023199999998,441.5625,323.509984,392.5,323.509984C343.4375,323.509984,343.4375,388.231956,294.375,388.231956C245.3125,388.231956,245.3125,421.669332,196.25,421.669332C147.1875,421.669332,147.1875,431.2,98.125,431.2C49.0625,431.2,49.0625,478.016,0,478.016Z"><title>Baixo Catrimani</title></path><path fill="#cccccc" d="M0,478.016C49.0625,478.016,49.0625,430.836,98.125,430.836C147.1875,430.836,147.1875,421.613332,196.25,421.613332C245.3125,421.613332,245.3125,385.45995600000003,294.375,385.45995600000003C343.4375,385.45995600000003,343.4375,315.30598399999997,392.5,315.30598399999997C441.5625,315.30598399999997,441.5625,134.85623200000003,490.625,134.85623200000003C539.6875,134.85623200000003,539.6875,42.720187999999936,588.75,42.720187999999936C637.8125,42.720187999999936,637.8125,57.481536000000006,686.875,57.481536000000006C735.9375,57.481536000000006,735.9375,383.68399999999997,785,383.68399999999997L785,383.908C735.9375,383.908,735.9375,57.64953599999998,686.875,57.64953599999998C637.8125,57.64953599999998,637.8125,43.05618799999996,588.75,43.05618799999996C539.6875,43.05618799999996,539.6875,137.74023200000002,490.625,137.74023200000002C441.5625,137.74023200000002,441.5625,316.98598400000003,392.5,316.98598400000003C343.4375,316.98598400000003,343.4375,385.739956,294.375,385.739956C245.3125,385.739956,245.3125,421.64133200000003,196.25,421.64133200000003C147.1875,421.64133200000003,147.1875,430.91999999999996,98.125,430.91999999999996C49.0625,430.91999999999996,49.0625,478.016,0,478.016Z"><title>Xitei</title></path><path fill="#cccccc" d="M0,478.016C49.0625,478.016,49.0625,430.78,98.125,430.78C147.1875,430.78,147.1875,421.613332,196.25,421.613332C245.3125,421.613332,245.3125,385.45995600000003,294.375,385.45995600000003C343.4375,385.45995600000003,343.4375,315.193984,392.5,315.193984C441.5625,315.193984,441.5625,134.35223200000001,490.625,134.35223200000001C539.6875,134.35223200000001,539.6875,42.076187999999945,588.75,42.076187999999945C637.8125,42.076187999999945,637.8125,56.97753599999999,686.875,56.97753599999999C735.9375,56.97753599999999,735.9375,383.46,785,383.46L785,383.68399999999997C735.9375,383.68399999999997,735.9375,57.481536000000006,686.875,57.481536000000006C637.8125,57.481536000000006,637.8125,42.720187999999936,588.75,42.720187999999936C539.6875,42.720187999999936,539.6875,134.85623200000003,490.625,134.85623200000003C441.5625,134.85623200000003,441.5625,315.30598399999997,392.5,315.30598399999997C343.4375,315.30598399999997,343.4375,385.45995600000003,294.375,385.45995600000003C245.3125,385.45995600000003,245.3125,421.613332,196.25,421.613332C147.1875,421.613332,147.1875,430.836,98.125,430.836C49.0625,430.836,49.0625,478.016,0,478.016Z"><title>Waputha</title></path><path fill="#ff7f0e" d="M0,478.016C49.0625,478.016,49.0625,430.724,98.125,430.724C147.1875,430.724,147.1875,421.27733200000006,196.25,421.27733200000006C245.3125,421.27733200000006,245.3125,383.275956,294.375,383.275956C343.4375,383.275956,343.4375,312.729984,392.5,312.729984C441.5625,312.729984,441.5625,133.17623200000003,490.625,133.17623200000003C539.6875,133.17623200000003,539.6875,39.808187999999944,588.75,39.808187999999944C637.8125,39.808187999999944,637.8125,50.78953599999999,686.875,50.78953599999999C735.9375,50.78953599999999,735.9375,381.5,785,381.5L785,383.46C735.9375,383.46,735.9375,56.97753599999999,686.875,56.97753599999999C637.8125,56.97753599999999,637.8125,42.076187999999945,588.75,42.076187999999945C539.6875,42.076187999999945,539.6875,134.35223200000001,490.625,134.35223200000001C441.5625,134.35223200000001,441.5625,315.193984,392.5,315.193984C343.4375,315.193984,343.4375,385.45995600000003,294.375,385.45995600000003C245.3125,385.45995600000003,245.3125,421.613332,196.25,421.613332C147.1875,421.613332,147.1875,430.78,98.125,430.78C49.0625,430.78,49.0625,478.016,0,478.016Z"><title>Ajuricaba</title></path><path fill="#cccccc" d="M0,478.016C49.0625,478.016,49.0625,430.696,98.125,430.696C147.1875,430.696,147.1875,420.12933200000003,196.25,420.12933200000003C245.3125,420.12933200000003,245.3125,383.107956,294.375,383.107956C343.4375,383.107956,343.4375,312.729984,392.5,312.729984C441.5625,312.729984,441.5625,132.50423199999997,490.625,132.50423199999997C539.6875,132.50423199999997,539.6875,39.66818799999996,588.75,39.66818799999996C637.8125,39.66818799999996,637.8125,49.30553600000003,686.875,49.30553600000003C735.9375,49.30553600000003,735.9375,379.932,785,379.932L785,381.5C735.9375,381.5,735.9375,50.78953599999999,686.875,50.78953599999999C637.8125,50.78953599999999,637.8125,39.808187999999944,588.75,39.808187999999944C539.6875,39.808187999999944,539.6875,133.17623200000003,490.625,133.17623200000003C441.5625,133.17623200000003,441.5625,312.729984,392.5,312.729984C343.4375,312.729984,343.4375,383.275956,294.375,383.275956C245.3125,383.275956,245.3125,421.27733200000006,196.25,421.27733200000006C147.1875,421.27733200000006,147.1875,430.724,98.125,430.724C49.0625,430.724,49.0625,478.016,0,478.016Z"><title>Hakoma</title></path><path fill="#cccccc" d="M0,478.016C49.0625,478.016,49.0625,430.696,98.125,430.696C147.1875,430.696,147.1875,420.101332,196.25,420.101332C245.3125,420.101332,245.3125,382.267956,294.375,382.267956C343.4375,382.267956,343.4375,312.00198399999994,392.5,312.00198399999994C441.5625,312.00198399999994,441.5625,131.91623199999998,490.625,131.91623199999998C539.6875,131.91623199999998,539.6875,39.556187999999906,588.75,39.556187999999906C637.8125,39.556187999999906,637.8125,47.569536000000035,686.875,47.569536000000035C735.9375,47.569536000000035,735.9375,379.59600000000006,785,379.59600000000006L785,379.932C735.9375,379.932,735.9375,49.30553600000003,686.875,49.30553600000003C637.8125,49.30553600000003,637.8125,39.66818799999996,588.75,39.66818799999996C539.6875,39.66818799999996,539.6875,132.50423199999997,490.625,132.50423199999997C441.5625,132.50423199999997,441.5625,312.729984,392.5,312.729984C343.4375,312.729984,343.4375,383.107956,294.375,383.107956C245.3125,383.107956,245.3125,420.12933200000003,196.25,420.12933200000003C147.1875,420.12933200000003,147.1875,430.696,98.125,430.696C49.0625,430.696,49.0625,478.016,0,478.016Z"><title>Demini</title></path><path fill="#cccccc" d="M0,478.016C49.0625,478.016,49.0625,430.696,98.125,430.696C147.1875,430.696,147.1875,420.101332,196.25,420.101332C245.3125,420.101332,245.3125,382.267956,294.375,382.267956C343.4375,382.267956,343.4375,312.00198399999994,392.5,312.00198399999994C441.5625,312.00198399999994,441.5625,131.888232,490.625,131.888232C539.6875,131.888232,539.6875,38.99618799999991,588.75,38.99618799999991C637.8125,38.99618799999991,637.8125,47.373535999999994,686.875,47.373535999999994C735.9375,47.373535999999994,735.9375,379.59600000000006,785,379.59600000000006L785,379.59600000000006C735.9375,379.59600000000006,735.9375,47.569536000000035,686.875,47.569536000000035C637.8125,47.569536000000035,637.8125,39.556187999999906,588.75,39.556187999999906C539.6875,39.556187999999906,539.6875,131.91623199999998,490.625,131.91623199999998C441.5625,131.91623199999998,441.5625,312.00198399999994,392.5,312.00198399999994C343.4375,312.00198399999994,343.4375,382.267956,294.375,382.267956C245.3125,382.267956,245.3125,420.101332,196.25,420.101332C147.1875,420.101332,147.1875,430.696,98.125,430.696C49.0625,430.696,49.0625,478.016,0,478.016Z"><title>Homoxi</title></path></g><g id="xAxis" transform="translate(0,560)" fill="none" font-size="10" font-family="sans-serif" text-anchor="middle"><path class="domain" stroke="currentColor" d="M0.5,0.5H785.5"/><g class="tick" opacity="1" transform="translate(0.5,0)"><line stroke="currentColor" y2="6"/><text fill="currentColor" y="9" dy="0.71em">2,014</text></g><g class="tick" opacity="1" transform="translate(98.625,0)"><line stroke="currentColor" y2="6"/><text fill="currentColor" y="9" dy="0.71em">2,015</text></g><g class="tick" opacity="1" transform="translate(196.75,0)"><line stroke="currentColor" y2="6"/><text fill="currentColor" y="9" dy="0.71em">2,016</text></g><g class="tick" opacity="1" transform="translate(294.875,0)"><line stroke="currentColor" y2="6"/><text fill="currentColor" y="9" dy="0.71em">2,017</text></g><g class="tick" opacity="1" transform="translate(393,0)"><line stroke="currentColor" y2="6"/><text fill="currentColor" y="9" dy="0.71em">2,018</text></g><g class="tick" opacity="1" transform="translate(491.125,0)"><line stroke="currentColor" y2="6"/><text fill="currentColor" y="9" dy="0.71em">2,019</text></g><g class="tick" opacity="1" transform="translate(589.25,0)"><line stroke="currentColor" y2="6"/><text fill="currentColor" y="9" dy="0.71em">2,020</text></g><g class="tick" opacity="1" transform="translate(687.375,0)"><line stroke="currentColor" y2="6"/><text fill="currentColor" y="9" dy="0.71em">2,021</text></g><g class="tick" opacity="1" transform="translate(785.5,0)"><line stroke="currentColor" y2="6"/><text fill="currentColor" y="9" dy="0.71em">2,022</text></g></g><text style="font-family: Arial, sans-serif; font-size: 12px; fill: rgb(123, 123, 123); font-weight: bold;" y="556" x="785" text-anchor="end">ano</text><text style="font-family: Arial, sans-serif; font-size: 12px; fill: rgb(123, 123, 123); font-weight: bold;" x="4" text-anchor="start" dominant-baseline="hanging">valor</text><g id="labels"><text x="294.375" y="541.758" text-anchor="middle" alignment-baseline="middle" style="font-family: Arial, sans-serif; font-size: 10px; fill: black; font-weight: bold;">Marari</text><text x="490.625" y="519.99738" text-anchor="middle" alignment-baseline="middle" style="font-family: Arial, sans-serif; font-size: 10px; fill: black; font-weight: bold;">Médio Padauiri</text><text x="490.625" y="483.925806" text-anchor="middle" alignment-baseline="middle" style="font-family: Arial, sans-serif; font-size: 10px; fill: black; font-weight: bold;">Marauiá</text><text x="392.5" y="472.119984" text-anchor="middle" alignment-baseline="middle" style="font-family: Arial, sans-serif; font-size: 10px; fill: black; font-weight: bold;">Missão Catrimani</text><text x="588.75" y="466.99021600000003" text-anchor="middle" alignment-baseline="middle" style="font-family: Arial, sans-serif; font-size: 10px; fill: black; font-weight: bold;">Baixo Mucajai</text><text x="588.75" y="437.058216" text-anchor="middle" alignment-baseline="middle" style="font-family: Arial, sans-serif; font-size: 10px; fill: black; font-weight: bold;">Aratha-u</text><text x="0" y="491.862" text-anchor="start" alignment-baseline="middle" style="font-family: Arial, sans-serif; font-size: 10px; fill: black; font-weight: bold;">Ajarani</text><text x="686.875" y="416.91753600000004" text-anchor="middle" alignment-baseline="middle" style="font-family: Arial, sans-serif; font-size: 10px; fill: black; font-weight: bold;">Ericó</text><text x="588.75" y="383.746216" text-anchor="middle" alignment-baseline="middle" style="font-family: Arial, sans-serif; font-size: 10px; fill: black; font-weight: bold;">Alto Mucajai</text><text x="686.875" y="377.409536" text-anchor="middle" alignment-baseline="middle" style="font-family: Arial, sans-serif; font-size: 10px; fill: black; font-weight: bold;">Sauba</text><text x="490.625" y="392.302232" text-anchor="middle" alignment-baseline="middle" style="font-family: Arial, sans-serif; font-size: 10px; fill: black; font-weight: bold;">Cachoeira do Araçá</text><text x="588.75" y="331.050216" text-anchor="middle" alignment-baseline="middle" style="font-family: Arial, sans-serif; font-size: 10px; fill: black; font-weight: bold;">Palimiú</text><text x="588.75" y="290.506216" text-anchor="middle" alignment-baseline="middle" style="font-family: Arial, sans-serif; font-size: 10px; fill: black; font-weight: bold;">Uraricoera</text><text x="686.875" y="333.43553599999996" text-anchor="middle" alignment-baseline="middle" style="font-family: Arial, sans-serif; font-size: 10px; fill: black; font-weight: bold;">Apiaú</text><text x="294.375" y="431.211956" text-anchor="middle" alignment-baseline="middle" style="font-family: Arial, sans-serif; font-size: 10px; fill: black; font-weight: bold;">Aracá</text><text x="686.875" y="323.00553600000006" text-anchor="middle" alignment-baseline="middle" style="font-family: Arial, sans-serif; font-size: 10px; fill: black; font-weight: bold;">Alto Padauiri</text><text x="686.875" y="287.571536" text-anchor="middle" alignment-baseline="middle" style="font-family: Arial, sans-serif; font-size: 10px; fill: black; font-weight: bold;">Auaris</text><text x="686.875" y="238.80953599999998" text-anchor="middle" alignment-baseline="middle" style="font-family: Arial, sans-serif; font-size: 10px; fill: black; font-weight: bold;">Novo-Demini</text><text x="588.75" y="197.336188" text-anchor="middle" alignment-baseline="middle" style="font-family: Arial, sans-serif; font-size: 10px; fill: black; font-weight: bold;">Parafuri</text><text x="490.625" y="262.830232" text-anchor="middle" alignment-baseline="middle" style="font-family: Arial, sans-serif; font-size: 10px; fill: black; font-weight: bold;">Waikás</text><text x="490.625" y="224.20423200000002" text-anchor="middle" alignment-baseline="middle" style="font-family: Arial, sans-serif; font-size: 10px; fill: black; font-weight: bold;">Toototobi</text><text x="686.875" y="162.943536" text-anchor="middle" alignment-baseline="middle" style="font-family: Arial, sans-serif; font-size: 10px; fill: black; font-weight: bold;">Surucucu</text><text x="392.5" y="354.729984" text-anchor="middle" alignment-baseline="middle" style="font-family: Arial, sans-serif; font-size: 10px; fill: black; font-weight: bold;">Maia</text><text x="490.625" y="201.97223199999996" text-anchor="middle" alignment-baseline="middle" style="font-family: Arial, sans-serif; font-size: 10px; fill: black; font-weight: bold;">Maturacá</text><text x="490.625" y="196.092232" text-anchor="middle" alignment-baseline="middle" style="font-family: Arial, sans-serif; font-size: 10px; fill: black; font-weight: bold;">Inambú</text><text x="588.75" y="104.22218799999997" text-anchor="middle" alignment-baseline="middle" style="font-family: Arial, sans-serif; font-size: 10px; fill: black; font-weight: bold;">Haxiu</text><text x="686.875" y="134.35553600000003" text-anchor="middle" alignment-baseline="middle" style="font-family: Arial, sans-serif; font-size: 10px; fill: black; font-weight: bold;">Balawau</text><text x="588.75" y="73.9961879999999" text-anchor="middle" alignment-baseline="middle" style="font-family: Arial, sans-serif; font-size: 10px; fill: black; font-weight: bold;">Paapiu</text><text x="686.875" y="89.709536" text-anchor="middle" alignment-baseline="middle" style="font-family: Arial, sans-serif; font-size: 10px; fill: black; font-weight: bold;">Maloca Paapiu</text><text x="686.875" y="71.95753600000002" text-anchor="middle" alignment-baseline="middle" style="font-family: Arial, sans-serif; font-size: 10px; fill: black; font-weight: bold;">Alto Catrimani</text><text x="686.875" y="62.381536000000025" text-anchor="middle" alignment-baseline="middle" style="font-family: Arial, sans-serif; font-size: 10px; fill: black; font-weight: bold;">Baixo Catrimani</text><text x="490.625" y="136.298232" text-anchor="middle" alignment-baseline="middle" style="font-family: Arial, sans-serif; font-size: 10px; fill: black; font-weight: bold;">Xitei</text><text x="588.75" y="42.39818799999994" text-anchor="middle" alignment-baseline="middle" style="font-family: Arial, sans-serif; font-size: 10px; fill: black; font-weight: bold;">Waputha</text><text x="686.875" y="53.88353599999999" text-anchor="middle" alignment-baseline="middle" style="font-family: Arial, sans-serif; font-size: 10px; fill: black; font-weight: bold;">Ajuricaba</text><text x="785" y="380.716" text-anchor="end" alignment-baseline="middle" style="font-family: Arial, sans-serif; font-size: 10px; fill: black; font-weight: bold;">Hakoma</text><text x="686.875" y="48.437536" text-anchor="middle" alignment-baseline="middle" style="font-family: Arial, sans-serif; font-size: 10px; fill: black; font-weight: bold;">Demini</text><text x="588.75" y="39.27618799999994" text-anchor="middle" alignment-baseline="middle" style="font-family: Arial, sans-serif; font-size: 10px; fill: black; font-weight: bold;">Homoxi</text></g></g><text x="4" y="4" style="font-family: Arial, sans-serif; font-size: 12px; fill: black; font-weight: bold; dominant-baseline: hanging;"/></g></g></svg>