<svg xmlns="http://www.w3.org/2000/svg" width="805" height="600"><rect width="805" height="600" x="0" y="0" fill="#FFFFFF" id="backgorund"/><g id="viz"><g transform="translate(0,0)"><g transform="translate(10,20)"><g><path fill="#1f77b4" d="M0,510.02C49.0625,510.02,49.0625,486.724,98.125,486.724C147.1875,486.724,147.1875,502.14133200000003,196.25,502.14133200000003C245.3125,502.14133200000003,245.3125,489.31195599999995,294.375,489.31195599999995C343.4375,489.31195599999995,343.4375,449.789984,392.5,449.789984C441.5625,449.789984,441.5625,414.88423199999994,490.625,414.88423199999994C539.6875,414.88423199999994,539.6875,381.128188,588.75,381.128188C637.8125,381.128188,637.8125,343.053536,686.875,343.053536C735.9375,343.053536,735.9375,474.74,785,474.74L785,560C735.9375,560,735.9375,560,686.875,560C637.8125,560,637.8125,560,588.75,560C539.6875,560,539.6875,560,490.625,560C441.5625,560,441.5625,560,392.5,560C343.4375,560,343.4375,560,294.375,560C245.3125,560,245.3125,560,196.25,560C147.1875,560,147.1875,560,98.125,560C49.0625,560,49.0625,560,0,560Z"><title>x0_9</title></path><path fill="#ff7f0e" d="M0,489.412C49.0625,489.412,49.0625,453.796,98.125,453.796C147.1875,453.796,147.1875,454.40133199999997,196.25,454.40133199999997C245.3125,454.40133199999997,245.3125,428.887956,294.375,428.887956C343.4375,428.887956,343.4375,379.20198400000004,392.5,379.20198400000004C441.5625,379.20198400000004,441.5625,285.52423200000004,490.625,285.52423200000004C539.6875,285.52423200000004,539.6875,217.300188,588.75,217.300188C637.8125,217.300188,637.8125,194.70953599999999,686.875,194.70953599999999C735.9375,194.70953599999999,735.9375,430.38800000000003,785,430.38800000000003L785,474.74C735.9375,474.74,735.9375,343.053536,686.875,343.053536C637.8125,343.053536,637.8125,381.128188,588.75,381.128188C539.6875,381.128188,539.6875,414.88423199999994,490.625,414.88423199999994C441.5625,414.88423199999994,441.5625,449.789984,392.5,449.789984C343.4375,449.789984,343.4375,489.31195599999995,294.375,489.31195599999995C245.3125,489.31195599999995,245.3125,502.14133200000003,196.25,502.14133200000003C147.1875,502.14133200000003,147.1875,486.724,98.125,486.724C49.0625,486.724,49.0625,510.02,0,510.02Z"><title>x10_19</title></path><path fill="#2ca02c" d="M0,484.848C49.0625,484.848,49.0625,444.472,98.125,444.472C147.1875,444.472,147.1875,440.00933200000003,196.25,440.00933200000003C245.3125,440.00933200000003,245.3125,408.251956,294.375,408.251956C343.4375,408.251956,343.4375,350.725984,392.5,350.725984C441.5625,350.725984,441.5625,222.552232,490.625,222.552232C539.6875,222.552232,539.6875,133.552188,588.75,133.552188C637.8125,133.552188,637.8125,125.99753599999998,686.875,125.99753599999998C735.9375,125.99753599999998,735.9375,406.75600000000003,785,406.75600000000003L785,430.38800000000003C735.9375,430.38800000000003,735.9375,194.70953599999999,686.875,194.70953599999999C637.8125,194.70953599999999,637.8125,217.300188,588.75,217.300188C539.6875,217.300188,539.6875,285.52423200000004,490.625,285.52423200000004C441.5625,285.52423200000004,441.5625,379.20198400000004,392.5,379.20198400000004C343.4375,379.20198400000004,343.4375,428.887956,294.375,428.887956C245.3125,428.887956,245.3125,454.40133199999997,196.25,454.40133199999997C147.1875,454.40133199999997,147.1875,453.796,98.125,453.796C49.0625,453.796,49.0625,489.412,0,489.412Z"><title>x20_29</title></path><path fill="#d62728" d="M0,481.76800000000003C49.0625,481.76800000000003,49.0625,438.788,98.125,438.788C147.1875,438.788,147.1875,431.413332,196.25,431.413332C245.3125,431.413332,245.3125,396.463956,294.375,396.463956C343.4375,396.463956,343.4375,333.477984,392.5,333.477984C441.5625,333.477984,441.5625,182.03623199999998,490.625,182.03623199999998C539.6875,182.03623199999998,539.6875,91.02018799999996,588.75,91.02018799999996C637.8125,91.02018799999996,637.8125,91.305536,686.875,91.305536C735.9375,91.305536,735.9375,393.81999999999994,785,393.81999999999994L785,406.75600000000003C735.9375,406.75600000000003,735.9375,125.99753599999998,686.875,125.99753599999998C637.8125,125.99753599999998,637.8125,133.552188,588.75,133.552188C539.6875,133.552188,539.6875,222.552232,490.625,222.552232C441.5625,222.552232,441.5625,350.725984,392.5,350.725984C343.4375,350.725984,343.4375,408.251956,294.375,408.251956C245.3125,408.251956,245.3125,440.00933200000003,196.25,440.00933200000003C147.1875,440.00933200000003,147.1875,444.472,98.125,444.472C49.0625,444.472,49.0625,484.848,0,484.848Z"><title>x30_39</title></path><path fill="#9467bd" d="M0,480.14399999999995C49.0625,480.14399999999995,49.0625,435.036,98.125,435.036C147.1875,435.036,147.1875,426.17733200000004,196.25,426.17733200000004C245.3125,426.17733200000004,245.3125,390.163956,294.375,390.163956C343.4375,390.163956,343.4375,323.25798399999996,392.5,323.25798399999996C441.5625,323.25798399999996,441.5625,154.736232,490.625,154.736232C539.6875,154.736232,539.6875,64.02818799999994,588.75,64.02818799999994C637.8125,64.02818799999994,637.8125,70.13753600000004,686.875,70.13753600000004C735.9375,70.13753600000004,735.9375,386.00800000000004,785,386.00800000000004L785,393.81999999999994C735.9375,393.81999999999994,735.9375,91.305536,686.875,91.305536C637.8125,91.305536,637.8125,91.02018799999996,588.75,91.02018799999996C539.6875,91.02018799999996,539.6875,182.03623199999998,490.625,182.03623199999998C441.5625,182.03623199999998,441.5625,333.477984,392.5,333.477984C343.4375,333.477984,343.4375,396.463956,294.375,396.463956C245.3125,396.463956,245.3125,431.413332,196.25,431.413332C147.1875,431.413332,147.1875,438.788,98.125,438.788C49.0625,438.788,49.0625,481.76800000000003,0,481.76800000000003Z"><title>x40_49</title></path><path fill="#8c564b" d="M0,478.912C49.0625,478.912,49.0625,432.572,98.125,432.572C147.1875,432.572,147.1875,423.01333200000005,196.25,423.01333200000005C245.3125,423.01333200000005,245.3125,386.10395600000004,294.375,386.10395600000004C343.4375,386.10395600000004,343.4375,317.433984,392.5,317.433984C441.5625,317.433984,441.5625,141.66023200000004,490.625,141.66023200000004C539.6875,141.66023200000004,539.6875,50.924187999999965,588.75,50.924187999999965C637.8125,50.924187999999965,637.8125,58.32153600000004,686.875,58.32153600000004C735.9375,58.32153600000004,735.9375,382.59200000000004,785,382.59200000000004L785,386.00800000000004C735.9375,386.00800000000004,735.9375,70.13753600000004,686.875,70.13753600000004C637.8125,70.13753600000004,637.8125,64.02818799999994,588.75,64.02818799999994C539.6875,64.02818799999994,539.6875,154.736232,490.625,154.736232C441.5625,154.736232,441.5625,323.25798399999996,392.5,323.25798399999996C343.4375,323.25798399999996,343.4375,390.163956,294.375,390.163956C245.3125,390.163956,245.3125,426.17733200000004,196.25,426.17733200000004C147.1875,426.17733200000004,147.1875,435.036,98.125,435.036C49.0625,435.036,49.0625,480.14399999999995,0,480.14399999999995Z"><title>x50_59</title></path><path fill="#e377c2" d="M0,478.128C49.0625,478.128,49.0625,431.50800000000004,98.125,431.50800000000004C147.1875,431.50800000000004,147.1875,421.557332,196.25,421.557332C245.3125,421.557332,245.3125,383.919956,294.375,383.919956C343.4375,383.919956,343.4375,313.625984,392.5,313.625984C441.5625,313.625984,441.5625,135.836232,490.625,135.836232C539.6875,135.836232,539.6875,43.14018799999995,588.75,43.14018799999995C637.8125,43.14018799999995,637.8125,51.12553600000002,686.875,51.12553600000002C735.9375,51.12553600000002,735.9375,380.632,785,380.632L785,382.59200000000004C735.9375,382.59200000000004,735.9375,58.32153600000004,686.875,58.32153600000004C637.8125,58.32153600000004,637.8125,50.924187999999965,588.75,50.924187999999965C539.6875,50.924187999999965,539.6875,141.66023200000004,490.625,141.66023200000004C441.5625,141.66023200000004,441.5625,317.433984,392.5,317.433984C343.4375,317.433984,343.4375,386.10395600000004,294.375,386.10395600000004C245.3125,386.10395600000004,245.3125,423.01333200000005,196.25,423.01333200000005C147.1875,423.01333200000005,147.1875,432.572,98.125,432.572C49.0625,432.572,49.0625,478.912,0,478.912Z"><title>x60_69</title></path><path fill="#7f7f7f" d="M0,478.044C49.0625,478.044,49.0625,430.892,98.125,430.892C147.1875,430.892,147.1875,420.353332,196.25,420.353332C245.3125,420.353332,245.3125,382.547956,294.375,382.547956C343.4375,382.547956,343.4375,312.141984,392.5,312.141984C441.5625,312.141984,441.5625,132.924232,490.625,132.924232C539.6875,132.924232,539.6875,39.92018799999993,588.75,39.92018799999993C637.8125,39.92018799999993,637.8125,48.12953600000004,686.875,48.12953600000004C735.9375,48.12953600000004,735.9375,379.876,785,379.876L785,380.632C735.9375,380.632,735.9375,51.12553600000002,686.875,51.12553600000002C637.8125,51.12553600000002,637.8125,43.14018799999995,588.75,43.14018799999995C539.6875,43.14018799999995,539.6875,135.836232,490.625,135.836232C441.5625,135.836232,441.5625,313.625984,392.5,313.625984C343.4375,313.625984,343.4375,383.919956,294.375,383.919956C245.3125,383.919956,245.3125,421.557332,196.25,421.557332C147.1875,421.557332,147.1875,431.50800000000004,98.125,431.50800000000004C49.0625,431.50800000000004,49.0625,478.128,0,478.128Z"><title>x70_79</title></path><path fill="#bcbd22" d="M0,478.016C49.0625,478.016,49.0625,430.696,98.125,430.696C147.1875,430.696,147.1875,420.101332,196.25,420.101332C245.3125,420.101332,245.3125,382.267956,294.375,382.267956C343.4375,382.267956,343.4375,312.00198399999994,392.5,312.00198399999994C441.5625,312.00198399999994,441.5625,131.888232,490.625,131.888232C539.6875,131.888232,539.6875,38.99618799999991,588.75,38.99618799999991C637.8125,38.99618799999991,637.8125,47.373535999999994,686.875,47.373535999999994C735.9375,47.373535999999994,735.9375,379.59600000000006,785,379.59600000000006L785,379.876C735.9375,379.876,735.9375,48.12953600000004,686.875,48.12953600000004C637.8125,48.12953600000004,637.8125,39.92018799999993,588.75,39.92018799999993C539.6875,39.92018799999993,539.6875,132.924232,490.625,132.924232C441.5625,132.924232,441.5625,312.141984,392.5,312.141984C343.4375,312.141984,343.4375,382.547956,294.375,382.547956C245.3125,382.547956,245.3125,420.353332,196.25,420.353332C147.1875,420.353332,147.1875,430.892,98.125,430.892C49.0625,430.892,49.0625,478.044,0,478.044Z"><title>x80_a_100</title></path></g><g id="xAxis" transform="translate(0,560)" fill="none" font-size="10" font-family="sans-serif" text-anchor="middle"><path class="domain" stroke="currentColor" d="M0.5,0.5H785.5"/><g class="tick" opacity="1" transform="translate(0.5,0)"><line stroke="currentColor" y2="6"/><text fill="currentColor" y="9" dy="0.71em">2,014</text></g><g class="tick" opacity="1" transform="translate(98.625,0)"><line stroke="currentColor" y2="6"/><text fill="currentColor" y="9" dy="0.71em">2,015</text></g><g class="tick" opacity="1" transform="translate(196.75,0)"><line stroke="currentColor" y2="6"/><text fill="currentColor" y="9" dy="0.71em">2,016</text></g><g class="tick" opacity="1" transform="translate(294.875,0)"><line stroke="currentColor" y2="6"/><text fill="currentColor" y="9" dy="0.71em">2,017</text></g><g class="tick" opacity="1" transform="translate(393,0)"><line stroke="currentColor" y2="6"/><text fill="currentColor" y="9" dy="0.71em">2,018</text></g><g class="tick" opacity="1" transform="translate(491.125,0)"><line stroke="currentColor" y2="6"/><text fill="currentColor" y="9" dy="0.71em">2,019</text></g><g class="tick" opacity="1" transform="translate(589.25,0)"><line stroke="currentColor" y2="6"/><text fill="currentColor" y="9" dy="0.71em">2,020</text></g><g class="tick" opacity="1" transform="translate(687.375,0)"><line stroke="currentColor" y2="6"/><text fill="currentColor" y="9" dy="0.71em">2,021</text></g><g class="tick" opacity="1" transform="translate(785.5,0)"><line stroke="currentColor" y2="6"/><text fill="currentColor" y="9" dy="0.71em">2,022</text></g></g><text style="font-family: Arial, sans-serif; font-size: 12px; fill: rgb(123, 123, 123); font-weight: bold;" y="556" x="785" text-anchor="end">ano</text><text style="font-family: Arial, sans-serif; font-size: 12px; fill: rgb(123, 123, 123); font-weight: bold;" x="4" text-anchor="start" dominant-baseline="hanging">valor</text><g id="labels"><text x="686.875" y="451.52676800000006" text-anchor="middle" alignment-baseline="middle" style="font-family: Arial, sans-serif; font-size: 10px; fill: black; font-weight: bold;">x0_9</text><text x="588.75" y="299.2141879999999" text-anchor="middle" alignment-baseline="middle" style="font-family: Arial, sans-serif; font-size: 10px; fill: black; font-weight: bold;">x10_19</text><text x="588.75" y="175.42618799999997" text-anchor="middle" alignment-baseline="middle" style="font-family: Arial, sans-serif; font-size: 10px; fill: black; font-weight: bold;">x20_29</text><text x="588.75" y="112.28618799999995" text-anchor="middle" alignment-baseline="middle" style="font-family: Arial, sans-serif; font-size: 10px; fill: black; font-weight: bold;">x30_39</text><text x="490.625" y="168.38623199999998" text-anchor="middle" alignment-baseline="middle" style="font-family: Arial, sans-serif; font-size: 10px; fill: black; font-weight: bold;">x40_49</text><text x="588.75" y="57.47618799999992" text-anchor="middle" alignment-baseline="middle" style="font-family: Arial, sans-serif; font-size: 10px; fill: black; font-weight: bold;">x50_59</text><text x="588.75" y="47.032187999999955" text-anchor="middle" alignment-baseline="middle" style="font-family: Arial, sans-serif; font-size: 10px; fill: black; font-weight: bold;">x60_69</text><text x="588.75" y="41.53018799999991" text-anchor="middle" alignment-baseline="middle" style="font-family: Arial, sans-serif; font-size: 10px; fill: black; font-weight: bold;">x70_79</text><text x="490.625" y="132.40623200000002" text-anchor="middle" alignment-baseline="middle" style="font-family: Arial, sans-serif; font-size: 10px; fill: black; font-weight: bold;">x80_a_100</text></g></g><text x="4" y="4" style="font-family: Arial, sans-serif; font-size: 12px; fill: black; font-weight: bold; dominant-baseline: hanging;"/></g></g></svg>