<svg xmlns="http://www.w3.org/2000/svg" width="805" height="600"><rect width="805" height="600" x="0" y="0" fill="#FFFFFF" id="backgorund"/><g id="viz"><g transform="translate(0,0)"><g transform="translate(50,20)"><g class="bars"><rect id="undefined - x0_9" x="0.9986595174262334" y="65.89661399999996" height="494.10338600000006" width="81.66815609174859" fill="#1f77b4"/><rect id="undefined - x10_19" x="83.6654751266011" y="200.914" height="359.086" width="81.66815609174859" fill="#1f77b4"/><rect id="undefined - x20_29" x="166.33229073577596" y="401.77199999999993" height="158.22800000000007" width="81.66815609174859" fill="#1f77b4"/><rect id="undefined - x30_39" x="248.9991063449508" y="471.464" height="88.536" width="81.66815609174859" fill="#1f77b4"/><rect id="undefined - x40_49" x="331.6659219541257" y="504.798" height="55.202" width="81.66815609174859" fill="#1f77b4"/><rect id="undefined - x50_59" x="414.33273756330055" y="530.922" height="29.077999999999975" width="81.66815609174859" fill="#1f77b4"/><rect id="undefined - x60_69" x="496.9995531724754" y="543.97" height="16.029999999999973" width="81.66815609174859" fill="#1f77b4"/><rect id="undefined - x70_79" x="579.6663687816504" y="552.678" height="7.322000000000003" width="81.66815609174859" fill="#1f77b4"/><rect id="undefined - x80_a_100" x="662.3331843908252" y="558.054" height="1.9460000000000264" width="81.66815609174859" fill="#1f77b4"/></g><g id="xAxis" transform="translate(0,560)" fill="none" font-size="10" font-family="sans-serif" text-anchor="middle"><path class="domain" stroke="currentColor" d="M0.5,0.5H745.5"/><g class="tick" opacity="1" transform="translate(41.832737563300526,0)"><line stroke="currentColor" y2="6"/><text fill="currentColor" y="9" dy="0.71em">x0_9</text></g><g class="tick" opacity="1" transform="translate(124.49955317247539,0)"><line stroke="currentColor" y2="6"/><text fill="currentColor" y="9" dy="0.71em">x10_19</text></g><g class="tick" opacity="1" transform="translate(207.16636878165025,0)"><line stroke="currentColor" y2="6"/><text fill="currentColor" y="9" dy="0.71em">x20_29</text></g><g class="tick" opacity="1" transform="translate(289.83318439082507,0)"><line stroke="currentColor" y2="6"/><text fill="currentColor" y="9" dy="0.71em">x30_39</text></g><g class="tick" opacity="1" transform="translate(372.5,0)"><line stroke="currentColor" y2="6"/><text fill="currentColor" y="9" dy="0.71em">x40_49</text></g><g class="tick" opacity="1" transform="translate(455.1668156091748,0)"><line stroke="currentColor" y2="6"/><text fill="currentColor" y="9" dy="0.71em">x50_59</text></g><g class="tick" opacity="1" transform="translate(537.8336312183496,0)"><line stroke="currentColor" y2="6"/><text fill="currentColor" y="9" dy="0.71em">x60_69</text></g><g class="tick" opacity="1" transform="translate(620.5004468275247,0)"><line stroke="currentColor" y2="6"/><text fill="currentColor" y="9" dy="0.71em">x70_79</text></g><g class="tick" opacity="1" transform="translate(703.1672624366995,0)"><line stroke="currentColor" y2="6"/><text fill="currentColor" y="9" dy="0.71em">x80_a_100</text></g><text x="745" y="-4" text-anchor="end" style="font-family: Arial, sans-serif; font-size: 12px; fill: rgb(123, 123, 123); font-weight: bold;">faixa_etaria</text></g><g id="yAxis" fill="none" font-size="10" font-family="sans-serif" text-anchor="end"><path class="domain" stroke="currentColor" d="M-6,560.5H0.5V0.5H-6"/><g class="tick" opacity="1" transform="translate(0,560.5)"><line stroke="currentColor" x2="-6"/><text fill="currentColor" x="-9" dy="0.32em">0</text></g><g class="tick" opacity="1" transform="translate(0,490.5)"><line stroke="currentColor" x2="-6"/><text fill="currentColor" x="-9" dy="0.32em">5,000</text></g><g class="tick" opacity="1" transform="translate(0,420.5)"><line stroke="currentColor" x2="-6"/><text fill="currentColor" x="-9" dy="0.32em">10,000</text></g><g class="tick" opacity="1" transform="translate(0,350.5)"><line stroke="currentColor" x2="-6"/><text fill="currentColor" x="-9" dy="0.32em">15,000</text></g><g class="tick" opacity="1" transform="translate(0,280.5)"><line stroke="currentColor" x2="-6"/><text fill="currentColor" x="-9" dy="0.32em">20,000</text></g><g class="tick" opacity="1" transform="translate(0,210.5)"><line stroke="currentColor" x2="-6"/><text fill="currentColor" x="-9" dy="0.32em">25,000</text></g><g class="tick" opacity="1" transform="translate(0,140.5)"><line stroke="currentColor" x2="-6"/><text fill="currentColor" x="-9" dy="0.32em">30,000</text></g><g class="tick" opacity="1" transform="translate(0,70.5)"><line stroke="currentColor" x2="-6"/><text fill="currentColor" x="-9" dy="0.32em">35,000</text></g><g class="tick" opacity="1" transform="translate(0,0.5)"><line stroke="currentColor" x2="-6"/><text fill="currentColor" x="-9" dy="0.32em">40,000</text></g><text x="4" text-anchor="start" dominant-baseline="hanging" style="font-family: Arial, sans-serif; font-size: 12px; fill: rgb(123, 123, 123); font-weight: bold;">valor [sum]</text></g></g><text y="4" x="4" style="font-family: Arial, sans-serif; font-size: 12px; fill: black; font-weight: bold; dominant-baseline: hanging;"/></g></g></svg>